<svg xmlns="http://www.w3.org/2000/svg" width="21.15" height="21.15" viewBox="0 0 21.15 21.15">
  <path id="Icon_material-account-box" data-name="Icon material-account-box" d="M4.5,6.85V23.3a2.349,2.349,0,0,0,2.35,2.35H23.3a2.357,2.357,0,0,0,2.35-2.35V6.85A2.357,2.357,0,0,0,23.3,4.5H6.85A2.349,2.349,0,0,0,4.5,6.85Zm14.1,4.7a3.525,3.525,0,1,1-3.525-3.525A3.52,3.52,0,0,1,18.6,11.55ZM8.025,20.95c0-2.35,4.7-3.643,7.05-3.643s7.05,1.293,7.05,3.643v1.175H8.025Z" transform="translate(-4.5 -4.5)" fill="#0068FF"/>
</svg>
