<svg width='30px' height='30px' xmlns="http://www.w3.org/2000/svg" viewBox="0 0 40 40">
  <path fill="#e1ebf2" d="M4,32.5c-1.379,0-2.5-1.122-2.5-2.5V10c0-1.378,1.121-2.5,2.5-2.5h32c1.379,0,2.5,1.122,2.5,2.5v20 c0,1.378-1.121,2.5-2.5,2.5H4z" />
  <path fill="#788b9c" d="M36,8c1.103,0,2,0.897,2,2v20c0,1.103-0.897,2-2,2H4c-1.103,0-2-0.897-2-2V10c0-1.103,0.897-2,2-2 H36 M36,7H4c-1.657,0-3,1.343-3,3v20c0,1.657,1.343,3,3,3h32c1.657,0,3-1.343,3-3V10C39,8.343,37.657,7,36,7L36,7z" />
  <path fill="#8bb7f0" d="M14,28.5c-4.687,0-8.5-3.813-8.5-8.5s3.813-8.5,8.5-8.5h12c4.687,0,8.5,3.813,8.5,8.5 s-3.813,8.5-8.5,8.5H14z" />
  <path fill="#4e7ab5" d="M26,12c4.411,0,8,3.589,8,8s-3.589,8-8,8H14c-4.411,0-8-3.589-8-8s3.589-8,8-8H26 M26,11 c-2.308,0-9.692,0-12,0c-4.971,0-9,4.029-9,9c0,4.971,4.029,9,9,9c2.308,0,9.692,0,12,0c4.971,0,9-4.029,9-9 C35,15.029,30.971,11,26,11L26,11z" />
  <path fill="#fff" d="M14,13c-3.85,0-7,3.15-7,7s3.15,7,7,7s7-3.15,7-7S17.85,13,14,13z M9.333,20 c0-2.217,1.517-3.967,3.5-4.55v8.983C10.85,23.967,9.333,22.217,9.333,20z M15.167,24.55v-8.983c1.983,0.467,3.5,2.333,3.5,4.55 C18.667,22.217,17.15,23.967,15.167,24.55z" />
</svg>