<svg xmlns="http://www.w3.org/2000/svg" viewBox="0 0 40 40" width='50px' height='50px'>
    <path fill="#dff0fe" d="M4,32.5c-1.378,0-2.5-1.122-2.5-2.5V10c0-1.378,1.122-2.5,2.5-2.5h32c1.378,0,2.5,1.122,2.5,2.5v20c0,1.378-1.122,2.5-2.5,2.5H4z" />
    <path fill="#4788c7" d="M36,8c1.103,0,2,0.897,2,2v20c0,1.103-0.897,2-2,2H4c-1.103,0-2-0.897-2-2V10c0-1.103,0.897-2,2-2H36 M36,7H4c-1.657,0-3,1.343-3,3v20c0,1.657,1.343,3,3,3h32c1.657,0,3-1.343,3-3V10C39,8.343,37.657,7,36,7L36,7z" />
    <path fill="#b6dcfe" d="M17.922,32.5c6.109-1.476,16.299-4.731,20.578-10.711V30c0,1.378-1.122,2.5-2.5,2.5H17.922z" />
    <path fill="#4788c7" d="M38,23.21V30c0,1.103-0.897,2-2,2H21.699C27.252,30.352,34.144,27.565,38,23.21 M39,20c-4.841,9.707-26,13-26,13h23c1.657,0,3-1.343,3-3V20L39,20z" />
    <path fill="#b6dcfe" d="M20.905,21.5c-1.147,0-2.013-0.86-2.013-2s0.866-2,2.013-2s2.013,0.86,2.013,2S22.052,21.5,20.905,21.5z" />
    <path fill="#4788c7" d="M20.905 18c.877 0 1.513.631 1.513 1.5S21.782 21 20.905 21c-.877 0-1.513-.631-1.513-1.5S20.028 18 20.905 18M20.905 17c-1.424 0-2.513 1.083-2.513 2.5s1.089 2.5 2.513 2.5 2.513-1.083 2.513-2.5S22.329 17 20.905 17L20.905 17zM8.622 17.082H9.6V22H8.622V17.082zM13.956 19.541c0 1.393 1.156 2.459 2.667 2.459.444 0 .8-.082 1.244-.246v-1.066c-.356.328-.711.492-1.244.492-.978 0-1.689-.656-1.689-1.639 0-.902.711-1.639 1.689-1.639.444 0 .8.164 1.244.492v-1.066C17.422 17.164 17.067 17 16.622 17 15.111 17.082 13.956 18.23 13.956 19.541zM25.867 20.279l-1.422-3.197h-1.067L25.6 22h.533l2.222-4.918h-1.067L25.867 20.279zM28.8 22h2.844v-.82h-1.867v-1.311h1.778v-.82h-1.778v-1.148h1.867v-.82H28.8V22zM35.556 18.557c0-.902-.622-1.475-1.778-1.475h-1.511V22h.978v-1.967h.089L34.756 22H36l-1.6-2.049C35.111 19.787 35.556 19.295 35.556 18.557zM33.511 19.377h-.267v-1.475h.267c.622 0 .978.246.978.738C34.489 19.049 34.222 19.377 33.511 19.377zM5.511 17.082H4V22h1.422c2.222 0 2.756-1.721 2.756-2.459C8.267 18.066 7.111 17.082 5.511 17.082zM5.244 21.18H4.978v-3.279h.356c1.333 0 1.867.82 1.867 1.639C7.2 19.869 7.111 21.18 5.244 21.18zM12.267 18.967c-.622-.246-.8-.328-.8-.574 0-.328.356-.492.711-.492.267 0 .533.082.8.41l.533-.656c-.444-.41-.889-.574-1.511-.574-.889 0-1.6.574-1.6 1.393 0 .656.356.984 1.244 1.311.533.164.978.328.978.738 0 .41-.356.656-.8.656s-.889-.246-1.067-.656l-.622.574C10.578 21.754 11.111 22 11.911 22c1.067 0 1.778-.656 1.778-1.557C13.689 19.705 13.333 19.377 12.267 18.967z" />
</svg>