<svg id="Group_829" data-name="Group 829" xmlns="http://www.w3.org/2000/svg" xmlns:xlink="http://www.w3.org/1999/xlink" width="352.858" height="338.872" viewBox="0 0 352.858 338.872">
  <defs>
    <clipPath id="clip-path">
      <rect id="Rectangle_706" data-name="Rectangle 706" width="352.858" height="338.872" fill="none"/>
    </clipPath>
    <clipPath id="clip-path-3">
      <rect id="Rectangle_702" data-name="Rectangle 702" width="211.247" height="242.278" fill="none"/>
    </clipPath>
    <clipPath id="clip-path-4">
      <rect id="Rectangle_703" data-name="Rectangle 703" width="62.368" height="62.368" fill="none"/>
    </clipPath>
    <clipPath id="clip-path-5">
      <rect id="Rectangle_704" data-name="Rectangle 704" width="183.216" height="224.536" fill="none"/>
    </clipPath>
  </defs>
  <g id="Group_828" data-name="Group 828" clip-path="url(#clip-path)">
    <g id="Group_827" data-name="Group 827" transform="translate(0 0)">
      <g id="Group_826" data-name="Group 826" clip-path="url(#clip-path)">
        <path id="Path_855" data-name="Path 855" d="M1449.89,854.283a6.144,6.144,0,0,1-.683-.038l-150.425-16.822a6.107,6.107,0,0,1-5.377-6.731l22.143-198.01a6.107,6.107,0,0,1,6.731-5.377L1472.7,644.127a6.107,6.107,0,0,1,5.376,6.731l-22.143,198.01a6.112,6.112,0,0,1-6.048,5.415M1321.6,628.735a4.644,4.644,0,0,0-4.593,4.111l-22.143,198.01a4.64,4.64,0,0,0,4.082,5.109l150.425,16.822a4.64,4.64,0,0,0,5.11-4.082l22.143-198.01a4.64,4.64,0,0,0-4.082-5.11l-150.425-16.822a4.642,4.642,0,0,0-.517-.029" transform="translate(-1138.752 -552.281)" fill="#444"/>
        <path id="Path_856" data-name="Path 856" d="M1340.961,782.234,1195.27,741.188a5.374,5.374,0,0,1-3.7-6.61L1245.6,542.8a5.374,5.374,0,0,1,6.61-3.7L1397.9,580.142a5.374,5.374,0,0,1,3.7,6.61L1347.571,778.53a5.374,5.374,0,0,1-6.61,3.7" transform="translate(-1048.945 -474.473)" fill="#3b82f4"/>
        <path id="Path_857" data-name="Path 857" d="M1978.224,893.485l-70.731-19.928a3.963,3.963,0,1,1,2.15-7.63l70.731,19.928a3.963,3.963,0,1,1-2.15,7.63" transform="translate(-1676.92 -762.28)" fill="#b3cef6"/>
        <path id="Path_858" data-name="Path 858" d="M1796.465,1042.562l-111.415-31.39a3.963,3.963,0,1,1,2.15-7.63l111.416,31.39a3.963,3.963,0,1,1-2.15,7.63" transform="translate(-1481.068 -883.444)" fill="#b3cef6"/>
        <path id="Path_859" data-name="Path 859" d="M1755.068,1189.5l-111.416-31.39a3.963,3.963,0,1,1,2.15-7.63l111.416,31.39a3.963,3.963,0,0,1-2.15,7.63" transform="translate(-1444.62 -1012.812)" fill="#b3cef6"/>
        <path id="Path_860" data-name="Path 860" d="M1713.672,1336.428l-111.415-31.39a3.975,3.975,0,0,1-2.74-4.89h0a3.975,3.975,0,0,1,4.89-2.74l111.415,31.39a3.963,3.963,0,1,1-2.15,7.63" transform="translate(-1408.173 -1142.18)" fill="#b3cef6"/>
        <path id="Path_861" data-name="Path 861" d="M1672.276,1483.363l-111.416-31.39a3.975,3.975,0,0,1-2.74-4.89h0a3.975,3.975,0,0,1,4.89-2.74l111.416,31.39a3.963,3.963,0,1,1-2.15,7.63" transform="translate(-1371.725 -1271.549)" fill="#b3cef6"/>
        <path id="Path_862" data-name="Path 862" d="M1630.879,1630.3l-111.415-31.39a3.963,3.963,0,1,1,2.15-7.63l111.415,31.39a3.963,3.963,0,1,1-2.15,7.63" transform="translate(-1335.277 -1400.917)" fill="#b3cef6"/>
        <path id="Path_863" data-name="Path 863" d="M1589.482,1777.229l-111.416-31.39a3.964,3.964,0,0,1,2.15-7.63l111.416,31.39a3.963,3.963,0,0,1-2.15,7.63" transform="translate(-1298.829 -1530.286)" fill="#b3cef6"/>
        <path id="Path_864" data-name="Path 864" d="M1548.085,1924.162l-111.415-31.39a3.963,3.963,0,1,1,2.15-7.63l111.415,31.39a3.963,3.963,0,1,1-2.15,7.63" transform="translate(-1262.381 -1659.654)" fill="#b3cef6"/>
        <path id="Path_865" data-name="Path 865" d="M1506.688,2071.1l-111.415-31.39a3.975,3.975,0,0,1-2.74-4.89h0a3.975,3.975,0,0,1,4.89-2.74l111.415,31.39a3.963,3.963,0,1,1-2.15,7.63" transform="translate(-1225.933 -1789.022)" fill="#b3cef6"/>
        <path id="Path_866" data-name="Path 866" d="M85.9,305.191h-.023c-.222,0-.419-.008-.6-.024l-.081-.009-.027,0c-.166-.017-.338-.04-.511-.07l-.036-.006-.137-.024c-.183-.036-.367-.079-.546-.129-.052-.014-.1-.03-.154-.046l-.034-.01c-.144-.044-.288-.093-.427-.145l-.012,0c-.065-.024-.13-.049-.194-.075-.145-.059-.288-.124-.44-.2-.073-.036-.145-.072-.217-.11-.169-.09-.315-.173-.447-.255-.066-.041-.129-.084-.193-.128l-.058-.039c-.1-.065-.189-.13-.281-.2-.075-.057-.148-.114-.22-.173-.1-.079-.2-.165-.306-.264l-.041-.037c-.042-.038-.085-.076-.126-.116-.159-.153-.3-.3-.436-.457-.022-.025-.039-.047-.057-.07l-.012-.015c-.115-.136-.23-.283-.338-.434-.038-.053-.074-.106-.11-.159l-.008-.012c-.089-.131-.176-.269-.258-.41l-.023-.04c-.026-.044-.052-.087-.076-.133-.119-.217-.218-.416-.3-.607l-.454-1.044L.606,120.244c-.09-.208-.172-.424-.249-.663-.017-.051-.031-.1-.045-.153-.006-.02-.011-.041-.017-.061-.04-.136-.085-.3-.121-.459-.015-.066-.027-.132-.039-.2l-.01-.057c-.031-.164-.052-.3-.068-.427-.011-.089-.02-.177-.027-.266-.012-.141-.021-.282-.025-.417,0-.087,0-.176,0-.265,0-.127.006-.263.016-.416l0-.046c0-.073.009-.145.016-.217.015-.147.036-.289.055-.409l.01-.068c.009-.063.019-.126.031-.189.026-.131.056-.25.085-.365l.008-.031a7.3,7.3,0,0,1,.312-.967c.014-.035.03-.069.046-.1l.015-.032c.088-.2.172-.382.258-.545.025-.048.052-.094.079-.141l.031-.054c.1-.173.186-.316.276-.451.043-.065.09-.129.136-.194l.013-.018c.1-.141.2-.27.3-.394.059-.071.12-.142.182-.211.1-.113.212-.228.337-.35l.017-.017c.063-.061.126-.122.191-.181.136-.122.275-.233.381-.316l.055-.044c.055-.044.11-.088.168-.13.153-.111.307-.208.45-.3l.057-.036c.05-.033.1-.065.154-.1a7.261,7.261,0,0,1,.712-.359L145.3,49.291a7.31,7.31,0,0,1,.749-.277c.056-.018.114-.033.173-.047l.068-.018c.154-.042.333-.09.519-.127.073-.014.145-.025.217-.036l.069-.011c.15-.023.312-.047.482-.062.086-.008.172-.012.258-.016l.036,0c.174-.008.329-.011.476-.008q.146,0,.292.011c.151.008.308.023.475.044l.016,0c.087.011.173.022.26.036.15.024.306.056.492.1l.061.014c.061.014.121.027.181.044.167.045.34.1.546.173l.042.014c.041.013.082.027.122.042a7.3,7.3,0,0,1,.938.441l.04.022c.094.051.191.1.292.167.054.034.1.068.154.1l.056.039c.11.073.229.155.349.246.058.044.112.089.167.134l.028.023c.122.1.229.192.326.281.062.057.122.115.181.174.1.1.2.205.3.314.057.064.114.127.169.193.086.1.172.213.271.348l.034.046c.039.052.078.1.115.159.093.135.177.273.254.4l.033.054c.028.045.056.091.082.138.123.221.225.429.315.634l78.566,180.548c.083.191.159.393.239.634.016.049.03.1.044.143l.014.048c.047.155.088.313.124.469l.008.035c.013.056.025.111.036.167.036.18.065.364.087.545l0,.02c0,.028.009.056.012.084.022.206.034.413.038.635,0,.054,0,.112,0,.17v.057c0,.146-.007.278-.016.4-.006.094-.014.187-.024.281-.012.112-.028.223-.045.334a7.406,7.406,0,0,1-.249,1.081c-.013.041-.027.082-.041.122l-.017.049c-.069.2-.146.4-.23.591-.028.065-.057.13-.088.2-.089.189-.189.375-.3.571l-.022.04c-.02.036-.04.072-.062.107a7.283,7.283,0,0,1-.47.676c-.016.02-.033.04-.051.06a7.257,7.257,0,0,1-.484.542c-.043.044-.089.088-.136.131l-.047.044c-.142.135-.286.262-.429.377-.074.06-.149.119-.226.176-.145.108-.3.215-.48.327l-.057.037c-.054.035-.107.069-.163.1a7.354,7.354,0,0,1-.758.387L88.81,304.585c-.187.081-.392.159-.627.236l-.019.006-.115.037c-.206.064-.413.119-.614.163l-.081.016-.033.006c-.2.039-.386.069-.569.091l-.023,0-.077.01c-.193.02-.393.032-.612.037H85.9M148.239,50.155c-.09,0-.187,0-.293.008l-.037,0c-.066,0-.132.006-.2.012-.129.011-.262.031-.386.05l-.08.012c-.049.007-.1.014-.148.024-.138.027-.286.067-.414.1l-.1.027c-.03.007-.06.014-.089.024a5.879,5.879,0,0,0-.6.222L4.985,111.952a5.871,5.871,0,0,0-.571.288c-.028.016-.054.034-.081.051l-.087.055c-.121.074-.247.153-.36.235-.038.027-.075.057-.113.087l-.065.052c-.093.073-.2.16-.3.252-.051.046-.1.094-.149.142l-.017.016c-.1.1-.19.19-.27.28-.05.055-.1.111-.145.168-.081.1-.161.2-.243.315l-.013.019c-.036.049-.072.1-.105.149-.071.105-.141.22-.221.361l-.039.068c-.017.029-.034.059-.05.089-.067.126-.134.268-.205.434-.011.025-.023.051-.035.077s-.01.022-.015.033a5.825,5.825,0,0,0-.249.775l-.008.033c-.025.1-.049.194-.067.283-.008.039-.013.079-.019.12l-.013.085c-.016.1-.034.218-.045.327-.005.053-.008.106-.011.159l0,.051c-.008.126-.012.234-.013.331,0,.07,0,.141,0,.212,0,.109.01.221.02.334.006.071.013.142.022.213.012.1.029.2.055.34l.012.064c.008.046.017.093.027.139.027.122.063.248.1.366.008.029.017.059.025.089s.015.055.024.083c.063.193.128.367.2.532L80.517,300.206c.065.15.144.309.242.487.017.032.035.062.053.092l.027.046c.066.113.135.223.207.329l.009.013c.028.041.056.083.085.123.086.119.177.236.27.347l.045.056.012.015c.1.117.216.236.344.361.028.027.056.052.084.077l.05.045c.087.079.167.148.244.21.059.048.117.094.176.138s.149.107.225.159l.065.044c.045.031.09.062.136.091.1.065.221.132.359.2.057.03.115.059.174.088.123.06.238.112.351.158.05.021.1.04.155.06.122.045.237.084.352.12l.036.011.116.034c.143.04.29.074.437.1l.093.016.043.007c.141.024.278.043.41.056l.058.007.029,0c.141.012.3.018.479.018h.126c.178,0,.338-.013.489-.029l.079-.011c.147-.017.3-.042.454-.073l.092-.018c.159-.034.324-.078.491-.13l.086-.028.02-.007c.2-.065.355-.125.5-.189l140.9-61.315a5.929,5.929,0,0,0,.606-.31c.034-.02.069-.042.1-.065l.072-.046c.146-.092.272-.177.385-.262.06-.045.12-.092.179-.14.115-.093.227-.191.342-.3l.057-.053c.03-.028.06-.056.089-.085a5.779,5.779,0,0,0,.395-.443l.042-.049a5.838,5.838,0,0,0,.367-.53c.009-.014.017-.03.026-.046l.041-.072c.093-.158.172-.308.243-.457h0c.025-.052.047-.1.071-.157.067-.153.129-.311.184-.473l.021-.06c.009-.026.018-.052.027-.078a5.938,5.938,0,0,0,.2-.866c.014-.089.027-.178.037-.268s.014-.149.019-.224c.007-.1.011-.2.012-.321v-.068c0-.037,0-.074,0-.111,0-.182-.013-.346-.03-.506l0-.016c0-.023-.007-.045-.01-.068-.017-.145-.041-.292-.07-.436-.008-.042-.018-.083-.027-.124l-.008-.037c-.028-.124-.062-.25-.1-.373l-.016-.055c-.01-.033-.02-.066-.03-.1-.065-.2-.126-.358-.191-.507L153.6,53.67c-.071-.163-.154-.329-.253-.509-.014-.025-.029-.05-.045-.074l-.048-.078c-.074-.124-.137-.226-.2-.321-.027-.039-.054-.076-.082-.112l-.039-.052c-.082-.111-.15-.2-.215-.276-.044-.053-.09-.1-.136-.155-.077-.086-.157-.17-.237-.249-.048-.047-.1-.094-.147-.141-.075-.069-.157-.14-.26-.223l-.032-.026c-.041-.034-.082-.068-.124-.1-.088-.067-.185-.133-.277-.195l-.072-.05c-.032-.022-.063-.044-.1-.065-.07-.044-.146-.085-.221-.126l-.043-.024a5.846,5.846,0,0,0-.753-.355l-.048-.016-.083-.028c-.169-.06-.308-.1-.437-.139-.04-.011-.079-.019-.118-.028l-.075-.017c-.154-.036-.279-.061-.394-.08-.067-.011-.136-.019-.2-.028l-.016,0c-.135-.017-.259-.028-.38-.035-.079,0-.156-.008-.234-.009h-.085" transform="translate(0 -42.867)" fill="#444"/>
        <g id="Group_819" data-name="Group 819" transform="translate(10.597 18.47)" opacity="0.2" style="mix-blend-mode: multiply;isolation: isolate">
          <g id="Group_818" data-name="Group 818">
            <g id="Group_817" data-name="Group 817" clip-path="url(#clip-path-3)">
              <path id="Path_867" data-name="Path 867" d="M298.738,355.433c.037-.054.071-.108.106-.163q.154-.24.286-.491c.026-.049.052-.1.077-.146a6.6,6.6,0,0,0,.374-.926c.031-.1.061-.194.088-.292.022-.081.042-.163.061-.245.027-.117.05-.235.07-.355.012-.067.025-.134.034-.2.026-.187.046-.376.056-.566,0-.031,0-.063,0-.094q.01-.248,0-.5c0-.061-.007-.122-.011-.184q-.015-.217-.044-.435c-.008-.059-.015-.118-.025-.177-.032-.2-.071-.4-.123-.6l-.284-1.1L251,161.787l-.609-2.356c-.054-.208-.119-.411-.191-.609-.023-.063-.051-.124-.075-.186-.053-.134-.108-.266-.169-.394-.033-.069-.069-.135-.1-.2-.061-.118-.124-.234-.191-.346-.04-.066-.081-.131-.123-.2q-.106-.164-.221-.32c-.045-.061-.09-.122-.137-.181-.081-.1-.165-.2-.251-.3-.049-.055-.1-.111-.149-.165-.089-.093-.182-.181-.276-.268-.055-.052-.109-.1-.166-.154-.087-.075-.178-.145-.269-.215a6.61,6.61,0,0,0-.773-.526c-.045-.026-.092-.048-.138-.073-.151-.082-.3-.161-.461-.231-.068-.03-.138-.056-.207-.085-.14-.057-.28-.111-.423-.158-.079-.026-.159-.049-.24-.072-.138-.04-.276-.075-.417-.106-.085-.019-.171-.036-.257-.051-.14-.025-.281-.044-.423-.06-.088-.01-.175-.02-.264-.026-.145-.01-.292-.012-.439-.013-.087,0-.172,0-.259,0-.159.006-.319.022-.479.04-.075.008-.149.012-.224.023a6.66,6.66,0,0,0-.7.14L93.585,193.176a6.672,6.672,0,0,0-.685.219c-.07.027-.137.059-.206.088-.15.062-.3.126-.441.2-.076.039-.149.082-.223.123-.13.072-.259.146-.383.227-.073.047-.142.1-.213.147-.119.084-.236.172-.349.263-.065.053-.129.107-.192.162-.112.1-.22.2-.326.307-.055.055-.11.11-.163.167-.108.116-.209.237-.308.361-.042.053-.086.1-.127.158-.109.145-.21.295-.306.448-.024.038-.05.073-.073.111a6.6,6.6,0,0,0-.414.818c-.048.111-.1.222-.137.336-.027.074-.049.15-.073.225-.038.117-.075.235-.107.354-.02.077-.036.154-.054.232-.027.121-.052.242-.072.365-.013.079-.024.158-.034.237q-.024.186-.037.375c-.006.079-.011.159-.013.239,0,.129,0,.259,0,.389,0,.077,0,.154.008.232.009.141.025.283.043.424.008.067.014.133.024.2.033.208.075.417.128.625l.61,2.36,48.4,187.167.285,1.1c.052.2.114.393.183.583.02.057.043.112.065.168q.08.2.172.4c.026.056.052.112.08.167q.113.223.24.435c.016.027.031.056.048.083.1.162.209.317.323.468.041.055.085.106.127.16.076.094.154.187.234.277.056.063.113.124.171.184s.146.145.221.215.133.128.2.188c.116.1.236.2.359.288.059.044.119.087.18.13q.176.123.359.235c.058.035.117.069.177.1q.176.1.357.188c.054.026.107.053.162.078q.23.1.467.192c.049.018.1.034.149.051q.219.075.443.134l.1.027c.174.043.352.077.53.105l.142.021c.181.025.364.044.548.054l.092,0q.256.01.514,0l.108,0c.189-.011.379-.031.569-.058l.124-.02c.2-.032.394-.07.591-.121l148.772-38.475a6.588,6.588,0,0,0,.727-.237c.074-.028.144-.062.216-.092.162-.069.32-.142.473-.223.076-.04.151-.081.225-.124.149-.086.293-.178.434-.275.063-.043.126-.084.187-.129a6.56,6.56,0,0,0,.516-.422c.014-.013.03-.024.044-.038a6.5,6.5,0,0,0,.512-.534c.033-.039.063-.08.1-.119.124-.15.241-.3.35-.464" transform="translate(-88.648 -154.497)" fill="#3a7ec1"/>
            </g>
          </g>
        </g>
        <path id="Path_868" data-name="Path 868" d="M257.362,113.091l49.3,190.629a6.6,6.6,0,0,1-4.731,8.03L153.16,350.226a6.6,6.6,0,0,1-8.031-4.73l-49.3-190.629a6.591,6.591,0,0,1,4.73-8.03l148.772-38.475a6.593,6.593,0,0,1,8.031,4.73" transform="translate(-84.187 -95.221)" fill="#e5a755"/>
        <path id="Path_869" data-name="Path 869" d="M257.364,113.089l.609,2.356-7.348,22.875L182.51,156.84l-68.558,16.826L96.441,157.225l-.61-2.36a6.588,6.588,0,0,1,4.73-8.03l148.772-38.475a6.589,6.589,0,0,1,8.031,4.73" transform="translate(-84.189 -95.218)" fill="#d89444"/>
        <path id="Path_870" data-name="Path 870" d="M668.94,1649.174l.284,1.1a6.591,6.591,0,0,1-4.73,8.03l-148.772,38.475a6.591,6.591,0,0,1-8.03-4.73l-.285-1.1,5.1-14.957a4.117,4.117,0,0,1,2.814-2.6L653.5,1637.653a4.142,4.142,0,0,1,3.726.909Z" transform="translate(-446.748 -1441.772)" fill="#d89444"/>
        <path id="Path_871" data-name="Path 871" d="M686.331,1654.271a6.576,6.576,0,0,1-4.538,4.12l-148.772,38.475a6.577,6.577,0,0,1-5.967-1.4l3.106-19.288a3.339,3.339,0,0,1,2.46-2.7L670.8,1637.737a3.35,3.35,0,0,1,3.466,1.17Z" transform="translate(-464.048 -1441.861)" fill="#f9c067"/>
        <path id="Path_872" data-name="Path 872" d="M259.445,109.4l-4.113,28.518a2.013,2.013,0,0,1-1.492,1.668L120.389,174.1a2.019,2.019,0,0,1-2.118-.734L100.849,150.42a6.578,6.578,0,0,1,4.317-3.584l148.772-38.475a6.573,6.573,0,0,1,5.508,1.038" transform="translate(-88.793 -95.221)" fill="#f9c067"/>
        <path id="Path_873" data-name="Path 873" d="M747.691,411.2a6.262,6.262,0,0,1-6.053-4.687L728.51,355.749A6.267,6.267,0,0,1,733,348.132l3.038-.786a6.258,6.258,0,0,1,7.617,4.487L756.78,402.6a6.267,6.267,0,0,1-4.487,7.617l-3.038.786a6.241,6.241,0,0,1-1.564.2M737.6,348.933a4.459,4.459,0,0,0-1.117.143l-3.038.786a4.48,4.48,0,0,0-3.2,5.441l13.128,50.764a4.47,4.47,0,0,0,5.441,3.2l3.038-.786a4.481,4.481,0,0,0,3.2-5.441l-13.128-50.764a4.473,4.473,0,0,0-4.324-3.348" transform="translate(-641.244 -305.647)" fill="#444"/>
        <path id="Path_874" data-name="Path 874" d="M740.14,346.673a8.729,8.729,0,1,1-10.636-6.265,8.729,8.729,0,0,1,10.636,6.265" transform="translate(-636.533 -299.467)" fill="#fff"/>
        <path id="Path_875" data-name="Path 875" d="M847.373,761.31a8.729,8.729,0,1,1-10.636-6.265,8.729,8.729,0,0,1,10.636,6.265" transform="translate(-730.947 -664.536)" fill="#fff"/>
        <g id="Group_822" data-name="Group 822" transform="translate(74.992 274.077)" opacity="0.2" style="mix-blend-mode: multiply;isolation: isolate">
          <g id="Group_821" data-name="Group 821">
            <g id="Group_820" data-name="Group 820" clip-path="url(#clip-path-4)">
              <path id="Path_876" data-name="Path 876" d="M671.832,2295.678a31.177,31.177,0,1,0,14.855,41.513,31.177,31.177,0,0,0-14.855-41.513" transform="translate(-627.319 -2292.678)" fill="#3a7ec1"/>
            </g>
          </g>
        </g>
        <path id="Path_877" data-name="Path 877" d="M667.537,2303.792a31.177,31.177,0,1,1-14.855-41.513,31.176,31.176,0,0,1,14.855,41.513" transform="translate(-535.466 -1989.194)" fill="#52d1bd"/>
        <path id="Path_878" data-name="Path 878" d="M720.266,2421.587l-6.026,5.68a13.818,13.818,0,0,0-.576,19.476l1.114,1.182a13.818,13.818,0,0,0,19.476.576l6.026-5.68a3.189,3.189,0,0,0,.133-4.509l-15.639-16.592a3.19,3.19,0,0,0-4.508-.133" transform="translate(-625.061 -2131.334)" fill="#fff"/>
        <path id="Path_879" data-name="Path 879" d="M852.086,2375.308l4.046-3.814a6.956,6.956,0,0,1,9.542,10.124l-4.046,3.814,2.628,2.788,4.046-3.814a10.787,10.787,0,0,0-14.8-15.7l-4.046,3.814Z" transform="translate(-747.91 -2082.959)" fill="#fff"/>
        <path id="Path_880" data-name="Path 880" d="M807.412,2528.286a3.257,3.257,0,1,0-5.287-1.233l-2.029,1.913a1.267,1.267,0,0,0,1.738,1.844l2.03-1.913a3.258,3.258,0,0,0,3.55-.61" transform="translate(-704.1 -2221.089)" fill="#52d1bd"/>
        <g id="Group_825" data-name="Group 825" transform="translate(130.577 58.28)" opacity="0.25" style="mix-blend-mode: multiply;isolation: isolate">
          <g id="Group_824" data-name="Group 824">
            <g id="Group_823" data-name="Group 823" clip-path="url(#clip-path-5)">
              <path id="Path_881" data-name="Path 881" d="M1244.1,500.3,1121.88,487.559a8.714,8.714,0,0,0-9.571,7.764l-19.972,191.616a8.714,8.714,0,0,0,7.764,9.571L1248.716,712a8.714,8.714,0,0,0,9.57-7.764l17.22-165.217Z" transform="translate(-1092.29 -487.512)" fill="#3a7ec1"/>
            </g>
          </g>
        </g>
        <path id="Path_882" data-name="Path 882" d="M1204.107,469.492l-122.215-12.738a8.714,8.714,0,0,0-9.571,7.764l-19.972,191.616a8.714,8.714,0,0,0,7.764,9.571l148.614,15.49a8.714,8.714,0,0,0,9.571-7.764l17.22-165.217Z" transform="translate(-926.505 -402.109)" fill="#fff"/>
        <path id="Path_883" data-name="Path 883" d="M2298.8,590.061a8.714,8.714,0,0,0,7.764,9.571l26.4,2.752-31.412-38.721Z" transform="translate(-2023.947 -496.279)" fill="#ededed"/>
        <path id="Path_884" data-name="Path 884" d="M2352.678,862.438l27.3,7.447.463-4.443Z" transform="translate(-2071.428 -759.338)" fill="#cecece"/>
        <path id="Path_885" data-name="Path 885" d="M1622.368,796.7l-74.738-7.79a3.684,3.684,0,0,1,.764-7.328l74.738,7.79a3.684,3.684,0,0,1-.764,7.328" transform="translate(-1359.713 -688.132)" fill="#52d1bd"/>
        <path id="Path_886" data-name="Path 886" d="M1445.324,988.541,1321.77,975.663a3.684,3.684,0,0,1,.764-7.328l123.555,12.878a3.684,3.684,0,0,1-.764,7.328" transform="translate(-1160.852 -852.558)" fill="#e4ecf9"/>
        <path id="Path_887" data-name="Path 887" d="M1429.062,1144.565l-123.555-12.878a3.684,3.684,0,0,1,.764-7.328l123.555,12.878a3.684,3.684,0,1,1-.764,7.328" transform="translate(-1146.534 -989.93)" fill="#e4ecf9"/>
        <path id="Path_888" data-name="Path 888" d="M1412.8,1300.589l-123.555-12.878a3.684,3.684,0,0,1,.764-7.328l123.555,12.878a3.684,3.684,0,0,1-.764,7.328" transform="translate(-1132.216 -1127.303)" fill="#e4ecf9"/>
        <path id="Path_889" data-name="Path 889" d="M1396.538,1456.614l-123.555-12.878a3.684,3.684,0,1,1,.764-7.328l123.555,12.878a3.684,3.684,0,1,1-.764,7.328" transform="translate(-1117.898 -1264.676)" fill="#e4ecf9"/>
        <path id="Path_890" data-name="Path 890" d="M1380.276,1612.638l-123.555-12.878a3.684,3.684,0,0,1,.764-7.328l123.555,12.878a3.7,3.7,0,0,1,3.282,4.046h0a3.694,3.694,0,0,1-4.046,3.282" transform="translate(-1103.58 -1402.048)" fill="#e4ecf9"/>
        <path id="Path_891" data-name="Path 891" d="M1364.013,1768.663l-123.555-12.878a3.684,3.684,0,1,1,.764-7.328l123.554,12.878a3.684,3.684,0,1,1-.764,7.328" transform="translate(-1089.261 -1539.421)" fill="#e4ecf9"/>
        <path id="Path_892" data-name="Path 892" d="M1761.475,1995.521a.7.7,0,0,0-1.156-.556,11.736,11.736,0,0,1-2.1,1.449l-1.1.439q-1.1.578-1.225-.915a.7.7,0,0,0-.926-1.035c-.852.7-1.982,1.638-3.187,1.488a3.875,3.875,0,0,1-1.112-.377,4.67,4.67,0,0,0,.69-.648.7.7,0,0,0,.039-.7,8.717,8.717,0,0,0-.763-1.442,26.433,26.433,0,0,0,6.474-10.177.7.7,0,0,0-1.121-.739,21.719,21.719,0,0,0-6.311,7.023,5.11,5.11,0,0,0-.786,3.2,3.166,3.166,0,0,0,.093.341,22.211,22.211,0,0,1-2.144,1.784,11.544,11.544,0,0,1-3.284,1.7c-.854.267-2.138.683-2.726-.151,1.94-1.087,3.506-2.627,2.672-4.547-1.255-2.887-4.255,1.468-4.411,3.9a15.9,15.9,0,0,1-2.95,1,.7.7,0,0,0,.294,1.358,19.784,19.784,0,0,0,2.98-1.017c1.645,2.9,6.848-.067,8.6-1.386.523-.393,1.04-.824,1.55-1.28.4.713.425.593-.568,1.265a.706.706,0,0,0,.095,1.276c1.082.451,2.195,1.14,3.4,1a3.857,3.857,0,0,0,1.081-.314.683.683,0,0,0,.28.471c1.906,1.248,4.322.214,6.158-1.021a9.262,9.262,0,0,1-3.172,5.656c-2.623,2.157-5.991,1.631-9.067,1.028-.866-.17-1.318,1.145-.443,1.317,3.356.658,6.945,1.217,9.909-.9a10.372,10.372,0,0,0,4.248-8.5M1741.353,1993c1.076-.832.342.746-.034,1.132a4.819,4.819,0,0,1-.807.639,3.8,3.8,0,0,1,.841-1.771m9.045-1.954a10.22,10.22,0,0,1,1.863-3.159,20.3,20.3,0,0,1,2.478-2.732,26.611,26.611,0,0,1-4.426,6.388,4.334,4.334,0,0,1,.085-.5" transform="translate(-1528.128 -1745.199)" fill="#e4ecf9"/>
        <path id="Path_893" data-name="Path 893" d="M2082.747,2025.831a13.305,13.305,0,1,1,15.227-11.055,13.32,13.32,0,0,1-15.227,11.055m3.72-23.441a10.429,10.429,0,1,0,8.665,11.934,10.441,10.441,0,0,0-8.665-11.934" transform="translate(-1823.887 -1760.367)" fill="#e4ecf9"/>
        <path id="Path_894" data-name="Path 894" d="M2153.558,2032.28l-.092.015a22.435,22.435,0,0,0-3.157.759l-1.5.488-1.439.572a41.518,41.518,0,0,0-5.458,2.7,44.733,44.733,0,0,0-5.034,3.281c-.906.661-1.78,1.366-2.638,2.094-.487-.448-.99-.885-1.514-1.306-.7-.613-1.491-1.158-2.262-1.719a22.952,22.952,0,0,0-2.533-1.522l-.084-.042a.192.192,0,0,0-.244.28c2.047,3,4.158,5.945,6.27,8.894a.356.356,0,0,0,.5.078c3.264-2.314,6.511-4.651,9.717-7.045l4.829-3.564c1.619-1.176,3.192-2.413,4.79-3.617a.192.192,0,0,0-.146-.343" transform="translate(-1873.23 -1789.33)" fill="#52d1bd"/>
        <path id="Path_895" data-name="Path 895" d="M1773.46,12.926A12.929,12.929,0,1,1,1760.531,0a12.929,12.929,0,0,1,12.929,12.929" transform="translate(-1538.686 0.003)" fill="#3a7ec1"/>
        <path id="Path_896" data-name="Path 896" d="M2080.1,2717.392a7.457,7.457,0,1,1-7.457-7.457,7.457,7.457,0,0,1,7.457,7.457" transform="translate(-1818.309 -2385.977)" fill="#3a7ec1"/>
      </g>
    </g>
  </g>
</svg>
